<svg width="24" height="24" viewBox="0 0 24 24" fill="none" xmlns="http://www.w3.org/2000/svg">
<path d="M7.53001 6.53003C7.66249 6.38785 7.73461 6.19981 7.73119 6.00551C7.72776 5.81121 7.64905 5.62582 7.51163 5.48841C7.37422 5.35099 7.18884 5.27228 6.99453 5.26885C6.80023 5.26543 6.61219 5.33755 6.47001 5.47003L4.47001 7.47003C4.32956 7.61065 4.25067 7.80128 4.25067 8.00003C4.25067 8.19878 4.32956 8.3894 4.47001 8.53003L6.47001 10.53C6.53867 10.6037 6.62147 10.6628 6.71347 10.7038C6.80547 10.7448 6.90479 10.7668 7.00549 10.7686C7.10619 10.7704 7.20622 10.7519 7.29961 10.7142C7.393 10.6764 7.47783 10.6203 7.54905 10.5491C7.62027 10.4778 7.67641 10.393 7.71413 10.2996C7.75186 10.2062 7.77038 10.1062 7.7686 10.0055C7.76683 9.9048 7.74478 9.80549 7.70379 9.71349C7.6628 9.62149 7.6037 9.53869 7.53001 9.47003L6.81001 8.75003H17C17.1989 8.75003 17.3897 8.67101 17.5303 8.53036C17.671 8.38971 17.75 8.19894 17.75 8.00003C17.75 7.80112 17.671 7.61035 17.5303 7.4697C17.3897 7.32905 17.1989 7.25003 17 7.25003H6.81001L7.53001 6.53003ZM16.47 13.47C16.3296 13.6107 16.2507 13.8013 16.2507 14C16.2507 14.1988 16.3296 14.3894 16.47 14.53L17.19 15.25H7.00001C6.8011 15.25 6.61033 15.329 6.46968 15.4697C6.32903 15.6104 6.25001 15.8011 6.25001 16C6.25001 16.1989 6.32903 16.3897 6.46968 16.5304C6.61033 16.671 6.8011 16.75 7.00001 16.75H17.19L16.47 17.47C16.3963 17.5387 16.3372 17.6215 16.2962 17.7135C16.2552 17.8055 16.2332 17.9048 16.2314 18.0055C16.2296 18.1062 16.2482 18.2062 16.2859 18.2996C16.3236 18.393 16.3798 18.4778 16.451 18.5491C16.5222 18.6203 16.607 18.6764 16.7004 18.7142C16.7938 18.7519 16.8938 18.7704 16.9945 18.7686C17.0952 18.7668 17.1946 18.7448 17.2866 18.7038C17.3785 18.6628 17.4614 18.6037 17.53 18.53L19.53 16.53C19.6705 16.3894 19.7494 16.1988 19.7494 16C19.7494 15.8013 19.6705 15.6107 19.53 15.47L17.53 13.47C17.3894 13.3296 17.1988 13.2507 17 13.2507C16.8013 13.2507 16.6106 13.3296 16.47 13.47Z" fill="#01966B"/>
</svg>
